<?xml version="1.0" encoding="UTF-8"?> <svg xmlns="http://www.w3.org/2000/svg" width="248" height="100"><g><title>background</title><rect x="-1" y="-1" width="250" height="102" id="canvas_background" fill="none"></rect></g><g><title>Layer 1</title><g stroke="null" id="svg_30"><g stroke="null" id="#ffffffff"><path stroke="null" fill="#ffffff" d="m0,0.178994l247.995595,0l0,99.481661l-247.995595,0l0,-99.481661m197.588717,6.569757c-2.428938,0.814844 -4.720417,2.120007 -6.527243,3.949507c-1.723215,1.730301 -2.967445,3.898491 -3.734107,6.206976c-0.940965,2.821481 -1.25273,5.818686 -1.211633,8.781877c0.051016,3.002873 0.603692,6.052512 2.01514,8.729446c1.074175,2.067574 2.658512,3.846057 4.509269,5.253256c3.562635,2.7237 7.87634,4.120976 11.943469,5.886705c2.121425,0.948051 4.308037,2.005223 5.834272,3.816297c1.727467,2.034983 1.975463,5.053442 0.984899,7.476714c-0.487491,1.162037 -1.387359,2.171024 -2.55223,2.678352c-1.281075,0.558344 -2.766214,0.572516 -4.089802,0.153049c-1.116689,-0.355696 -2.037814,-1.203133 -2.559313,-2.243297c-0.785084,-1.536155 -0.918291,-3.297632 -0.932463,-4.992505c-0.004251,-0.440723 -0.002834,-0.882866 0,-1.322172c-5.31561,0.004251 -10.632634,0.005668 -15.949661,-0.002834c0.017005,1.329257 -0.034011,2.659932 0.048182,3.987769c0.150215,3.079398 0.848852,6.216895 2.525302,8.842814c1.292412,2.044903 3.198436,3.661833 5.356706,4.734591c2.744957,1.370354 5.801681,1.982549 8.838562,2.268806c2.686855,0.23666 5.394969,0.257917 8.086075,0.059519c2.957525,-0.232408 5.919299,-0.776582 8.668507,-1.921613c2.209289,-0.916874 4.262692,-2.263137 5.8612,-4.052954c1.456796,-1.614099 2.516802,-3.562635 3.188514,-5.62454c0.880032,-2.692526 1.1507,-5.548018 1.105352,-8.368082c-0.056685,-2.727951 -0.511579,-5.482828 -1.628268,-7.98829c-1.025993,-2.336827 -2.651426,-4.39165 -4.628307,-5.998661c-3.667499,-3.004288 -8.217864,-4.539028 -12.530153,-6.348685c-2.264554,-0.97923 -4.611301,-2.017977 -6.330265,-3.847477c-2.019392,-2.104419 -2.400598,-5.584861 -0.902703,-8.078986c1.128026,-1.894687 3.667499,-2.648592 5.705313,-1.937201c1.384525,0.507328 2.273057,1.830917 2.706697,3.185682c0.53567,1.570166 0.501659,3.246616 0.488905,4.883387c5.148389,-0.004251 10.296775,-0.014171 15.445164,0.001417c-0.011337,-2.838487 -0.252245,-5.705316 -1.072758,-8.433267c-0.650457,-2.162521 -1.70621,-4.231515 -3.25937,-5.885291c-1.777066,-1.93153 -4.156407,-3.219691 -6.647699,-3.980684c-3.37274,-1.031661 -6.931123,-1.25273 -10.439908,-1.197462c-2.811561,0.060934 -5.640128,0.430803 -8.315646,1.327838m-178.022574,-0.089279c2.744957,12.625103 5.451651,25.258705 8.182436,37.886642c1.815328,8.45169 3.656165,16.897711 5.457322,25.352236c7.099759,0.004251 14.199517,-0.001417 21.299278,0.002834c4.522023,-21.090964 9.097896,-42.169171 13.628421,-63.257301c-5.85128,0.011337 -11.703977,0.007086 -17.556672,0.008503c-1.643856,11.779082 -3.283461,23.558167 -4.927318,35.337249c-0.55551,4.096885 -1.164871,8.188105 -1.677867,12.290661c-0.048182,0.005668 -0.14313,0.015588 -0.191312,0.021257c-0.011337,-0.059519 -0.032594,-0.177141 -0.042514,-0.23666c-2.182361,-15.806531 -4.405818,-31.605976 -6.596682,-47.41109c-5.858366,0.005668 -11.716729,-0.00992 -17.575094,0.005668m50.306262,-0.005668c-3.666085,16.87362 -7.349173,33.745824 -11.020926,50.618027c-0.048182,0.238077 -0.070856,0.480402 -0.070856,0.724148c0.001417,3.96793 -0.001417,7.935859 -0.002834,11.905206c12.518818,-0.002834 25.03622,-0.002834 37.555035,0c-0.015588,-4.488012 -0.017005,-8.974606 0.007086,-13.462618c-7.024651,0.001417 -14.050722,-0.002834 -21.07679,0.002834c-0.001417,-3.983518 0.007086,-7.967036 -0.004251,-11.949137c0.001417,-0.211149 0.002834,-0.419466 0.005668,-0.629201c0.294759,-0.002834 0.592355,0.025508 0.885697,-0.01984c6.260826,0.048182 12.524487,0.004251 18.78673,0.022674c-0.014171,-4.312288 -0.015588,-8.623159 0.008503,-12.93545c-6.561254,0.001417 -13.121094,-0.002834 -19.682348,0.002834c-0.002834,-3.379826 0.008503,-6.759651 -0.005668,-10.13806c0.002834,-0.218234 0.004251,-0.436472 0.007086,-0.654709c0.623532,0 1.247064,0.011337 1.872013,-0.008503c6.374194,0.01984 12.749807,-0.007086 19.12542,0.014171c-0.004251,-4.496514 -0.005668,-8.994446 0.004251,-13.492377c-8.797468,0.001417 -17.594934,0.001417 -26.393817,0m27.910132,0.002834c0.025508,4.925903 0.018423,9.850386 0.00992,14.776287c-0.011337,16.160809 0.011337,32.323039 -0.001417,48.483848c5.145555,-0.001417 10.291109,-0.002834 15.436661,0c-0.018423,-12.204217 -0.001417,-24.408436 -0.011337,-36.61407c0.018423,-0.704308 -0.007086,-1.411448 -0.001417,-2.115756c0.002834,-0.076525 0.007086,-0.229574 0.00992,-0.306099c0.038262,-0.018423 0.114787,-0.056685 0.153049,-0.076525c0.279174,1.040167 0.582435,2.073245 0.861609,3.113409l0.032594,0.015588c0.070854,0.313182 0.153047,0.624949 0.242326,0.935297c3.27921,11.686969 6.561254,23.373941 9.856055,35.056658c6.027001,-0.01984 12.054002,-0.007086 18.079585,-0.007086c-0.001417,-21.08813 -0.008503,-42.176257 0.002834,-63.264386c-5.148386,0.007086 -10.295358,-0.012754 -15.443747,0.00992c0.031177,12.535824 -0.002834,25.073065 0.024091,37.610306c-0.080776,0.459146 0.153049,1.024576 -0.127541,1.421368c-0.110536,-0.317433 -0.196978,-0.641955 -0.284839,-0.966473l-0.053851,-0.02976c-0.109119,-0.680217 -0.335859,-1.334926 -0.503076,-2.000972c-3.267876,-12.017156 -6.557005,-24.028647 -9.823461,-36.045803c-6.151708,0.005668 -12.304833,-0.002834 -18.457957,0.004251m46.523973,-0.002834c0.015588,4.675069 0.005668,9.348724 0.00992,14.023796c4.13515,-0.012754 8.268884,-0.005668 12.404031,-0.011337c-0.011337,16.417306 0,32.836032 -0.005668,49.253341c5.495582,-0.005668 10.991166,-0.005668 16.488165,-0.001417c-0.011337,-16.187735 0.007086,-32.37547 -0.00992,-48.563207c0.001417,-0.228154 0.001417,-0.456311 0.005668,-0.684466c4.132313,-0.005668 8.26463,0 12.398363,0.002834c-0.011337,-4.676489 0.011337,-9.351561 -0.002834,-14.028048c-13.763048,0.01984 -27.524677,0.002834 -41.287725,0.008503m-59.24402,69.519541c-0.783667,0.633452 -1.068506,1.687787 -1.074175,2.658512c-0.001417,2.4587 0.001417,4.917398 -0.001417,7.376098c0,0.714228 0.126121,1.452544 0.501659,2.073242c0.416632,0.725565 1.210219,1.163454 2.02506,1.27399c1.000484,0.130375 2.127093,0.021257 2.913594,-0.674549c0.753908,-0.661794 0.99765,-1.714713 1.001902,-2.679769c0.002834,-1.47947 0,-2.958942 0,-4.436995c-1.011821,-0.001417 -2.022226,0 -3.034047,0c-0.001417,0.65896 0,1.31792 -0.001417,1.976878c0.32877,0 0.656123,0 0.986313,0.001417c-0.026925,1.004739 0.063771,2.017977 -0.051016,3.017045c-0.080776,0.88428 -1.322172,1.12094 -1.880516,0.544173c-0.266417,-0.304679 -0.290508,-0.732651 -0.294759,-1.116689c0.002834,-2.455866 -0.001417,-4.910312 0.002834,-7.364761c0.001417,-0.433637 0.094945,-0.950885 0.505911,-1.184711c0.541339,-0.290508 1.404362,-0.154464 1.605594,0.498825c0.20548,0.709977 0.077942,1.462467 0.111953,2.190864c0.674546,-0.031174 1.38594,0.065188 2.040648,-0.042511c0.00992,-1.139363 0.12329,-2.370838 -0.469066,-3.399665c-0.418049,-0.756742 -1.237144,-1.220139 -2.078911,-1.323589c-0.962225,-0.120456 -2.032148,-0.021257 -2.810144,0.612195m-56.200053,-0.508745c0,4.59713 0,9.195675 0,13.792805c0.629198,0 1.258398,0 1.889016,0c0.032594,-3.209771 -0.065188,-6.423793 0.052434,-9.632149c0.444974,3.22111 1.052918,6.418127 1.561663,9.629315c0.690137,0.004251 1.381691,0.001417 2.073245,0.002834c0.504494,-3.266456 0.980645,-6.537163 1.500727,-9.800784c-0.022674,3.266456 -0.004251,6.534329 -0.00992,9.800784c0.683051,0 1.3661,0 2.049151,0c0,-4.59713 0,-9.195675 0,-13.792805c-1.006153,-0.001417 -2.012306,0 -3.017042,-0.001417c-0.494574,3.246616 -0.98915,6.493232 -1.476638,9.741268c-0.541339,-3.245202 -1.064255,-6.493235 -1.598508,-9.739851c-1.008987,-0.001417 -2.016557,0 -3.02413,0m28.407543,13.792805c0.666046,0 1.333506,-0.001417 2.000969,0.001417c0.130375,-0.836098 0.242328,-1.673616 0.381207,-2.508297c0.880029,0.005668 1.758641,0.001417 2.637255,0.002834c0.121873,0.834681 0.250828,1.669365 0.372701,2.504045c0.732651,0 1.466718,0 2.199366,0c-0.734065,-4.598547 -1.46955,-9.195675 -2.203618,-13.792805c-1.061421,-0.001417 -2.121425,0 -3.182845,0c-0.736902,4.59713 -1.469553,9.194258 -2.205035,13.792805m52.291643,0c0.666043,0 1.333506,-0.001417 2.000969,0c0.130375,-0.834681 0.242328,-1.672199 0.381204,-2.50688c0.878614,0.005668 1.757226,0.002834 2.637258,0.002834c0.123287,0.834681 0.249411,1.669365 0.372701,2.504045c0.732651,0 1.465299,0 2.199366,0c-0.734068,-4.59713 -1.46955,-9.195675 -2.203618,-13.792805c-1.061421,-0.001417 -2.121425,0 -3.181428,0c-0.739736,4.59713 -1.47097,9.194258 -2.206452,13.792805m26.765101,-13.792805c0,0.657543 -0.001417,1.316503 0.001417,1.976878c1.300915,-0.001417 2.601827,-0.001417 3.902742,0c-1.344846,3.24095 -2.696774,6.479063 -4.040203,9.721428c-0.160132,0.681634 -0.02976,1.401531 -0.070856,2.098751c2.115759,0 4.231515,0 6.347271,0c0,-0.660375 0,-1.320752 0,-1.981129c-1.36752,0 -2.736454,0 -4.103974,0c1.353348,-3.272124 2.730785,-6.534331 4.069963,-9.812124c0.082193,-0.661792 0.00992,-1.337757 0.034011,-2.003803c-2.046317,-0.001417 -4.094054,0 -6.140371,0m25.696594,13.791388c0.721314,0.001417 1.444044,0.001417 2.16819,0c-0.002834,-4.597128 0.001417,-9.195675 -0.001417,-13.792805c-0.722728,0.001417 -1.444042,0.001417 -2.165355,0c-0.002834,4.598547 0,9.195678 -0.001417,13.792805m25.082985,0c0.650455,0.001417 1.302329,0.001417 1.954204,0.001417c0.01984,-3.283461 -0.036845,-6.56834 0.028342,-9.850384c0.882863,3.284878 1.785569,6.565505 2.672683,9.850384c0.743988,0 1.489392,0 2.236212,0c-0.001417,-4.598545 0,-9.195675 0,-13.792805c-0.644789,0 -1.288158,0 -1.930113,-0.001417c-0.002834,2.732203 0.001417,5.464405 -0.002834,8.196608c-0.756742,-2.729368 -1.48089,-5.468656 -2.234795,-8.198025c-0.908374,0.004251 -1.815328,0.001417 -2.722285,0.001417c-0.002834,4.59713 0.001417,9.195678 -0.001417,13.792805m26.736761,-13.791388c0,4.598547 0,9.198512 0,13.797057c1.966958,0 3.935336,0 5.903711,0c-0.001417,-0.660375 -0.001417,-1.319335 0,-1.979712c-1.245644,-0.002834 -2.491291,0 -3.736938,-0.001417c0,-1.340594 -0.001417,-2.681186 0.001417,-4.023198c0.990565,0 1.981132,0.002834 2.973114,0c-0.002834,-0.65896 -0.001417,-1.31792 0,-1.976878c-0.991982,-0.001417 -1.983966,0 -2.974531,0c0,-1.279658 0,-2.560733 0,-3.840391c1.24423,0 2.489877,0 3.736938,0c-0.001417,-0.658957 0,-1.317918 -0.001417,-1.976878c-1.966958,0.001417 -3.935336,0 -5.902294,0.001417z" id="svg_1"></path><path stroke="null" fill="#ffffff" d="m60.958736,78.157311c0.341524,2.308485 0.688717,4.615553 1.033078,6.922621c-0.68872,0 -1.378857,0 -2.067577,0c0.342944,-2.307068 0.687303,-4.615553 1.034498,-6.922621z" id="svg_2"></path><path stroke="null" fill="#ffffff" d="m112.21588,85.079931c0.344361,-2.307068 0.685886,-4.615553 1.035913,-6.921204c0.34011,2.307068 0.68872,4.614136 1.031664,6.921204c-0.690137,0 -1.378857,0 -2.067577,0z" id="svg_3"></path></g><g stroke="null" id="#86190cff"><path stroke="null" fill="#86190c" d="m197.588717,6.748751c2.675518,-0.897034 5.504085,-1.266904 8.315646,-1.327838c3.508784,-0.055268 7.067167,0.165801 10.439908,1.197462c2.491294,0.760993 4.870633,2.049154 6.647699,3.980684c1.55316,1.653776 2.608915,3.72277 3.25937,5.885291c0.820512,2.727951 1.061421,5.59478 1.072758,8.433267c-5.148386,-0.015588 -10.296775,-0.005668 -15.445164,-0.001417c0.012754,-1.636771 0.046765,-3.313221 -0.488905,-4.883387c-0.433637,-1.354766 -1.322172,-2.678355 -2.706694,-3.185682c-2.037817,-0.711391 -4.577291,0.042514 -5.705316,1.937201c-1.497895,2.494126 -1.116689,5.974567 0.902703,8.078986c1.718964,1.8295 4.065711,2.868246 6.330265,3.847477c4.312288,1.809657 8.862653,3.344398 12.530155,6.348685c1.976878,1.607011 3.602312,3.661833 4.628304,5.998661c1.116689,2.505463 1.571586,5.260339 1.628268,7.98829c0.045348,2.820064 -0.22532,5.675557 -1.105352,8.36808c-0.671712,2.061908 -1.731715,4.010443 -3.188514,5.62454c-1.598508,1.78982 -3.651911,3.136083 -5.861197,4.052957c-2.749211,1.145031 -5.710985,1.689204 -8.66851,1.921613c-2.691106,0.198397 -5.399217,0.177141 -8.086075,-0.059519c-3.036882,-0.286256 -6.093606,-0.898452 -8.838562,-2.268806c-2.15827,-1.072758 -4.064294,-2.689689 -5.356704,-4.734591c-1.67645,-2.625918 -2.37509,-5.763416 -2.525305,-8.842814c0.128958,-0.993399 0.34861,-2.084579 1.1507,-2.764796c1.03733,-0.773747 2.38501,-0.980645 3.650497,-0.942382c2.411932,0.007086 4.825285,0.005668 7.23722,0.001417c1.349094,-0.045348 2.766214,0.208315 3.863062,1.042998c0.014171,1.694873 0.147378,3.45635 0.932463,4.992505c0.521499,1.040164 1.442627,1.887599 2.559316,2.243297c1.323586,0.419466 2.808725,0.405295 4.0898,-0.153049c1.164871,-0.507328 2.06474,-1.516315 2.55223,-2.678352c0.990565,-2.423272 0.742568,-5.441731 -0.984899,-7.476714c-1.526235,-1.811077 -3.712847,-2.868246 -5.834272,-3.816297c-4.067128,-1.765729 -8.380834,-3.163006 -11.943469,-5.886705c-1.850754,-1.407199 -3.435094,-3.185682 -4.509269,-5.253256c-1.411448,-2.676935 -1.964124,-5.726573 -2.01514,-8.729446c-0.041097,-2.963191 0.270668,-5.960396 1.211636,-8.781877c0.766659,-2.308485 2.010889,-4.476675 3.734104,-6.206976c1.806826,-1.8295 4.098305,-3.134663 6.527243,-3.949507m6.657621,1.256984c-3.634908,0.334439 -7.33075,1.350512 -10.250013,3.626403c-1.710461,1.359017 -3.092152,3.124746 -3.973598,5.127132c-0.694388,1.642439 -1.523401,3.28913 -1.616931,5.103041c0.004251,0.617864 -0.188478,1.220139 -0.145964,1.840837c0.051016,1.567332 -0.120456,3.147417 0.130375,4.700578c0.304679,3.596646 1.798323,7.153612 4.424241,9.673246c0.989147,0.872946 2.01514,1.718964 3.163006,2.380758c2.305651,1.468133 4.874887,2.437443 7.370429,3.524372c2.513968,1.035913 5.064779,2.120007 7.181952,3.86448c0.500245,0.484654 1.011824,0.962222 1.472387,1.48939c1.554577,1.906024 2.229126,4.516354 1.762895,6.933958c-0.313185,2.393512 -1.966961,4.595713 -4.231515,5.470074c-2.316988,0.892786 -5.203654,0.405295 -6.919784,-1.448293c-1.217305,-1.145031 -1.777066,-2.784636 -2.14977,-4.37039c-0.219652,-0.962225 -0.905537,-1.802574 -1.833748,-2.152604c-0.644789,-0.323102 -1.376022,-0.23524 -2.068994,-0.239491c-2.176692,0 -4.353385,0 -6.52866,-0.001417c-1.004736,0.072273 -2.039231,0.674549 -2.373673,1.667947c-0.250828,0.863023 -0.07369,1.781317 0.043931,2.655678c0.491739,3.452099 2.016557,6.9623 4.93582,9.028457c1.954207,1.487973 4.327879,2.284394 6.700132,2.81723c1.69629,0.379787 3.433676,0.484654 5.154057,0.69864c1.703376,0.002834 3.409585,0.021257 5.112961,-0.00992c1.269738,-0.194146 2.556479,-0.242328 3.817714,-0.483237c1.279658,-0.155884 2.519637,-0.530002 3.749695,-0.901288c2.523885,-0.789333 4.880552,-2.15827 6.712886,-4.077046c2.521051,-2.839904 3.719933,-6.636364 3.952341,-10.376137c0.157298,-0.729816 0.09211,-1.475218 0.110533,-2.214955c0.028342,-0.717062 -0.206897,-1.412868 -0.145961,-2.129927c-0.257917,-2.400598 -0.877197,-4.798362 -2.10017,-6.89853c-0.948051,-1.624017 -2.155436,-3.131829 -3.671751,-4.261272c-3.304718,-2.692526 -7.386018,-4.113894 -11.256166,-5.773338c-1.387359,-0.617864 -2.814396,-1.166288 -4.096888,-1.992469c-1.986798,-1.137946 -3.81488,-2.725117 -4.760097,-4.85221c-0.282008,-0.789336 -0.632035,-1.58292 -0.632035,-2.436026c-0.069439,-0.522916 -0.194146,-1.04725 -0.036845,-1.568749c0.048182,-1.004736 0.32877,-1.985381 0.795004,-2.875332c1.103935,-2.23196 3.650494,-3.695842 6.140371,-3.376991c2.321239,0.221071 4.282529,2.02648 5.012345,4.193252c0.393958,1.102517 0.586687,2.382175 1.526235,3.18568c0.600858,0.430803 1.344846,0.690137 2.091665,0.661794c2.267388,-0.017005 4.536194,0.005668 6.803582,-0.00992c0.814844,-0.096364 1.734552,-0.439306 2.078914,-1.252733c0.578184,-1.057169 0.103447,-2.253217 -0.045348,-3.355735c-0.478985,-2.23196 -1.268321,-4.536194 -2.974531,-6.136119c-0.734068,-0.623532 -1.54324,-1.164871 -2.413352,-1.578669c-0.609361,-0.282008 -1.103935,-0.746822 -1.599925,-1.186128c-0.269251,0.008503 -0.521499,0.068022 -0.759576,0.178558c-0.155881,-0.34011 0.290511,-0.225323 0.494576,-0.21682c-0.274922,-0.371284 -0.721314,-0.534253 -1.099683,-0.766662c-1.408616,-0.841767 -2.987285,-1.3661 -4.601382,-1.633936c-0.881449,-0.2154 -1.791237,-0.179972 -2.678352,-0.337273c-0.851689,-0.051016 -1.70621,0.039679 -2.553648,-0.080776c-1.069924,0.151632 -2.156853,-0.041097 -3.219691,0.172889z" id="svg_4"></path><path stroke="null" fill="#86190c" d="m19.566143,6.659472c5.858366,-0.015588 11.716729,0 17.575094,-0.005668c2.190864,15.805114 4.414321,31.604559 6.596682,47.41109c-1.269738,-1.023158 -1.652359,-2.691106 -1.930113,-4.217344c-1.513484,-10.46683 -2.907926,-20.9535 -4.402987,-31.426002c-0.232406,-2.013723 -0.598024,-4.009026 -0.813424,-6.025584c-0.094947,-0.848852 -0.362784,-1.720381 -0.967891,-2.348164c-0.511582,-0.4719 -1.193213,-0.789333 -1.900356,-0.755322c-2.974531,0.012754 -5.950476,0.002834 -8.926424,0.002834c-1.198882,-0.048182 -2.292897,1.163451 -2.037817,2.35383c1.333509,5.973153 2.600413,11.959057 3.889991,17.94071c2.345328,10.840951 4.669401,21.686154 7.014731,32.527105c0.367033,1.536155 0.605109,3.102069 1.033078,4.62547c0.257917,0.878614 0.858775,1.718964 1.748724,2.034983c0.707142,0.303262 1.490807,0.218234 2.240463,0.223903c4.157824,-0.002834 8.315646,-0.001417 12.472053,0c1.410031,0.02976 2.654261,-1.077009 2.96036,-2.423269c0.52575,-2.250383 0.972142,-4.517771 1.458213,-6.778074c1.00757,-4.211675 1.859259,-8.458776 2.78747,-12.687456c2.423272,-11.215069 4.825285,-22.432973 7.257059,-33.646625c0.170055,-0.87436 0.497408,-1.757226 0.335859,-2.658512c-0.160135,-0.551259 -0.537087,-1.067089 -1.074178,-1.300915c-0.56543,-0.280588 -1.214468,-0.20548 -1.822411,-0.213983c-2.693943,0.004251 -5.387883,0.011337 -8.080406,-0.001417c-1.359017,-0.052434 -2.487043,1.152114 -2.69394,2.436023c-1.550326,10.981246 -3.058141,21.969576 -4.605633,32.949405c-0.382621,2.48704 -0.521499,5.03927 -1.31792,7.4427c-0.24516,0.841769 -0.821927,1.558832 -1.527652,2.064742c-0.249414,0.211149 -0.572516,0.14171 -0.863026,0.096364c0.512999,-4.102557 1.122357,-8.193776 1.677867,-12.290664c1.643859,-11.779082 3.283464,-23.558164 4.92732,-35.337246c5.852694,-0.001417 11.705392,0.002834 17.556669,-0.008503c-4.530525,21.08813 -9.106396,42.166337 -13.628419,63.257301c-7.099761,-0.004251 -14.19952,0.001417 -21.299278,-0.002834c-1.801157,-8.454524 -3.641994,-16.900546 -5.457322,-25.352236c-2.730785,-12.627937 -5.43748,-25.26154 -8.182436,-37.886642z" id="svg_5"></path><path stroke="null" fill="#86190c" d="m69.872405,6.653803c8.798883,0.001417 17.596348,0.001417 26.393817,0c-0.00992,4.497932 -0.008503,8.995863 -0.004251,13.492377c-6.375613,-0.021257 -12.751227,0.005668 -19.12542,-0.014171c-0.263585,-0.048182 -0.524333,-0.11337 -0.78225,-0.177138c0.999067,-0.408132 2.084579,-0.495994 3.150252,-0.568264c4.394484,0.001417 8.788966,0 13.18203,0.001417c1.452544,0.002834 2.604661,-1.36752 2.62025,-2.767633c0.002834,-1.558829 -0.007086,-3.119075 0.004251,-4.679321c0.015588,-0.630618 -0.228154,-1.238561 -0.589521,-1.745889c-0.624949,-0.858775 -1.737387,-1.156368 -2.750625,-1.16062c-5.808766,0.007086 -11.618947,0.002834 -17.427713,0.001417c-0.709977,0.022674 -1.418534,0.223906 -2.030729,0.58527c-0.834684,0.561179 -1.322172,1.516315 -1.517735,2.481374c-0.664626,3.021293 -1.312249,6.04684 -1.983963,9.066719c-0.314599,1.191794 -0.464814,2.419018 -0.780833,3.610814c-2.097333,9.497522 -4.136565,19.007799 -6.226815,28.506739c-0.464814,2.117176 -0.950885,4.2386 -1.136528,6.401122c-0.017005,2.175275 0.005668,4.350551 -0.011337,6.525826c-0.015588,0.810593 0.232408,1.673616 0.816261,2.256051c0.865858,0.671714 2.013723,0.833267 3.080812,0.795004c8.270301,-0.012754 16.539182,-0.001417 24.808063,-0.005668c1.407199,-0.035428 2.873915,0.161552 4.217344,-0.362781c0.738316,-0.277756 1.208802,-0.97923 1.446876,-1.701958c0.344361,-0.997653 0.18706,-2.066159 0.21682,-3.099238c-0.02976,-1.350514 0.213983,-2.834235 -0.58527,-4.027449c-0.613612,-1.034495 -1.924447,-1.248481 -3.025547,-1.288158c-4.249935,0.004251 -8.501289,-0.002834 -12.752641,0.002834c-1.339177,0.041094 -2.865412,-0.185643 -3.790792,-1.255567c-0.885697,-0.991982 -0.990565,-2.386427 -1.094015,-3.649079c-0.007086,-1.93153 -0.002834,-3.861645 -0.001417,-5.793175c0.096364,-1.245647 0.238077,-2.59191 1.067089,-3.592394c0.011337,3.982101 0.002834,7.965619 0.004251,11.949137c7.026071,-0.005668 14.052139,-0.001417 21.076793,-0.002834c-0.024091,4.488012 -0.022674,8.974606 -0.007086,13.462618c-12.518818,-0.002834 -25.036217,-0.002834 -37.555035,0c0.001417,-3.969347 0.004251,-7.937276 0.002834,-11.905206c0,-0.243745 0.022674,-0.486071 0.070856,-0.724148c3.671751,-16.872203 7.354841,-33.744406 11.020923,-50.618027l0.000003,0z" id="svg_6"></path><path stroke="null" fill="#86190c" d="m97.782537,6.656637c6.153125,-0.007086 12.30625,0.001417 18.457957,-0.004251c3.266456,12.017159 6.555585,24.028649 9.823458,36.045806c0.167221,0.666046 0.393961,1.320755 0.503079,2.000969c-0.68872,-0.301845 -1.01891,-1.024576 -1.37744,-1.635354c-1.052918,-2.17811 -1.544658,-4.560282 -2.207869,-6.871602c-2.05482,-7.526313 -4.106808,-15.054043 -6.16021,-22.581771c-0.324519,-1.13086 -0.480402,-2.366587 -1.231476,-3.317472c-0.636286,-0.86586 -1.745889,-1.252733 -2.788887,-1.259818c-3.351483,0.00992 -6.704384,0.004251 -10.055867,0.001417c-0.993399,0.014171 -2.043483,0.467648 -2.562148,1.34768c-0.405298,0.67738 -0.473317,1.490807 -0.490322,2.26172c0.005668,1.704793 0.011337,3.409583 -0.002834,5.114375c-0.014171,0.612195 0.13179,1.21447 0.145961,1.826665c0.002834,12.75831 0.001417,25.518039 0.001417,38.276349c-0.008503,0.568264 -0.14171,1.126609 -0.144544,1.694873c0.004251,1.745889 0,3.491779 0.001417,5.237668c0.002834,0.844601 -0.077942,1.723215 0.228154,2.532388c0.260751,0.704308 0.763827,1.368937 1.492227,1.631102c0.685883,0.286259 1.43979,0.328773 2.175275,0.307516c1.796903,-0.012754 3.593809,-0.001417 5.389297,-0.002834c0.880029,-0.011337 1.826665,-0.211152 2.465786,-0.858775c0.71706,-0.704305 0.831847,-1.789817 0.795001,-2.742122c-0.165801,-0.854521 0.110536,-1.703376 0.070856,-2.56073c0.031177,-0.949468 -0.189895,-1.886185 -0.144547,-2.835653c0.032594,-0.946634 -0.068019,-1.898939 0.086445,-2.83707c0.120456,-0.613612 -0.10345,-1.221556 -0.051016,-1.835168c0.036845,-0.566847 -0.043931,-1.135111 0.036845,-1.699124c0.087862,-0.613612 -0.12329,-1.227224 -0.004251,-1.840837c0.177141,-1.136528 -0.12329,-2.268806 -0.07369,-3.406748c-0.015588,-0.901288 0.24658,-1.795489 0.10345,-2.69536c-0.131793,-0.938131 -0.130375,-1.89185 -0.046765,-2.834235c0.072273,-0.709974 -0.13321,-1.417116 -0.021257,-2.125676c0.291928,-1.952787 -0.145961,-3.96793 0.391126,-5.892374c0.194143,-0.605109 0.508745,-1.167705 0.629198,-1.795489c0.00992,12.205634 -0.007086,24.409851 0.011337,36.61407c-5.145552,-0.002834 -10.291107,-0.001417 -15.436661,0c0.012754,-16.160812 -0.00992,-32.323039 0.001417,-48.483848c0.008503,-4.9259 0.015588,-9.850386 -0.00992,-14.776287z" id="svg_7"></path><path stroke="null" fill="#86190c" d="m127.009172,6.663723c5.148389,-0.022674 10.295361,-0.002834 15.443747,-0.00992c-0.011337,21.08813 -0.004251,42.176257 -0.002834,63.264386c-6.025584,0 -12.052584,-0.012754 -18.079585,0.007086c-3.294801,-11.68272 -6.576845,-23.369689 -9.856055,-35.056658c-0.089279,-0.310348 -0.171472,-0.622115 -0.242328,-0.935297c1.099683,0.398209 1.611265,1.567332 2.087416,2.546559c1.153534,2.726534 1.757226,5.638711 2.61033,8.465861c2.043485,7.305242 4.098305,14.607649 6.16021,21.908639c0.284842,0.892783 0.872946,1.701958 1.679284,2.189447c0.844604,0.395375 1.808243,0.497408 2.727951,0.357115c1.881933,-0.022674 3.765284,0.001417 5.648631,-0.007086c1.200299,0.012754 2.402015,-0.043931 3.600897,0.052431c1.006153,0.011337 2.173858,-0.418049 2.559313,-1.428453c0.355698,-0.691554 0.284842,-1.483721 0.279174,-2.233377c-0.004251,-14.028048 0.005668,-28.056096 -0.004251,-42.084144c-0.051016,-0.795004 0.119036,-1.575834 0.138875,-2.366587c0.001417,-2.848407 0,-5.696813 0.001417,-8.54522c-0.007086,-0.71706 0.089279,-1.46955 -0.2154,-2.142681c-0.252248,-0.572516 -0.589521,-1.176208 -1.181876,-1.448293c-0.641955,-0.287676 -1.34768,-0.427972 -2.049151,-0.426554c-2.083165,0.011337 -4.16491,0.002834 -6.248072,0.002834c-0.777999,0.035428 -1.59426,0.184226 -2.246132,0.632035c-0.55551,0.487488 -0.935299,1.218722 -0.923962,1.965544c0.008503,7.843746 0.001417,15.68891 0.004251,23.532656c-0.011337,1.227224 0.065188,2.4587 -0.119038,3.677419c0.007086,1.380274 -0.087859,2.776136 -0.493157,4.101139c-0.23524,0.641955 -0.501659,1.42137 -1.255564,1.591423c-0.026925,-12.537238 0.007086,-25.074479 -0.024091,-37.610303z" id="svg_8"></path><path stroke="null" fill="#86190c" d="m144.30651,6.653803c13.763048,-0.005668 27.524677,0.011337 41.287725,-0.008503c0.014171,4.676489 -0.008503,9.351561 0.002834,14.028048c-4.133733,-0.002834 -8.266049,-0.008503 -12.398363,-0.002834c1.146448,-0.080776 2.188029,-0.647623 3.34298,-0.681634c1.852171,-0.100613 3.71143,0.00142 5.565021,-0.045345c1.25415,-0.090696 2.549393,-1.136528 2.482789,-2.475706c-0.014171,-1.842254 -0.00992,-3.684505 -0.007086,-5.525341c-0.011337,-1.025993 -0.488905,-2.154018 -1.485138,-2.574904c-0.786501,-0.415215 -1.697707,-0.335856 -2.555062,-0.330187c-10.395977,0 -20.791951,0.001417 -31.18651,-0.001417c-0.990565,0.018423 -2.100168,0.384038 -2.579153,1.320755c-0.674549,1.271153 -0.405298,2.754877 -0.457731,4.133731c0.060936,1.325006 -0.20548,2.722283 0.34011,3.979267c0.393958,0.945217 1.431288,1.462464 2.420438,1.478053c1.643856,0.021257 3.290547,-0.022674 4.93582,0.014174c1.248481,0.106282 2.637255,0.263582 3.571135,1.193211c1.003321,0.987733 1.164871,2.482791 1.20455,3.817717c-0.014171,13.748874 0.002834,27.496334 -0.008503,41.243791c0.001417,0.962222 0.338693,2.039234 1.201716,2.563567c0.855941,0.501659 1.881933,0.501659 2.844155,0.48182c2.080328,-0.008503 4.160659,0.002834 6.240987,-0.002834c0.979228,-0.052434 2.117173,-0.327356 2.642924,-1.24423c0.622115,-1.050084 0.538505,-2.324073 0.534253,-3.498864c0.001417,-8.454524 -0.001417,-16.907631 0.001417,-25.362156c0.035428,-0.709977 -0.043931,-1.415699 -0.056685,-2.124259c0.110536,-1.462464 0.034011,-2.9306 0.051016,-4.395899c0.00992,-2.835653 0.002834,-5.672722 0.002834,-8.508375c0.004251,-0.994816 0.30043,-2.002389 0.948054,-2.770465c0.017005,16.187735 -0.001417,32.37547 0.00992,48.563204c-5.497002,-0.004251 -10.992583,-0.004251 -16.488165,0.001417c0.005668,-16.417306 -0.005668,-32.836032 0.005668,-49.253341c-4.13515,0.005668 -8.268881,-0.001417 -12.404031,0.011337c-0.004251,-4.675072 0.005668,-9.348724 -0.00992,-14.023796z" id="svg_9"></path><path stroke="null" fill="#86190c" d="m74.302315,23.99082c-0.011337,-1.128026 0.222486,-2.305648 0.955136,-3.1956c0.014171,3.378409 0.002834,6.758234 0.005668,10.13806c6.561254,-0.005668 13.121094,-0.001417 19.682348,-0.002834c-0.024091,4.312288 -0.022674,8.623162 -0.008503,12.93545c-6.262243,-0.018423 -12.525904,0.025508 -18.78673,-0.022674c0.850272,-0.470483 1.823831,-0.667463 2.790305,-0.65896c3.969347,0.00992 7.937276,-0.007086 11.906623,0.008503c0.840352,0.012754 1.701958,-0.274919 2.312736,-0.863023c0.541339,-0.52575 0.745405,-1.306583 0.732651,-2.043485c-0.007086,-1.368934 -0.011337,-2.739288 0.001417,-4.108222c0.015588,-0.739736 -0.225323,-1.504981 -0.732651,-2.054822c-0.675966,-0.67738 -1.683536,-0.848852 -2.601827,-0.855938c-3.922582,0.014171 -7.843746,-0.002834 -11.764911,0.008503c-0.939551,0.021257 -1.886185,-0.202649 -2.718034,-0.636286c-1.04725,-0.572516 -1.570166,-1.762895 -1.724632,-2.896589c-0.025508,-0.786499 -0.175721,-1.564497 -0.168635,-2.352416c0.024091,-1.133694 -0.055268,-2.273057 0.119038,-3.399663l0,-0.000003z" id="svg_10"></path></g><g stroke="null" id="#cf2513ff"><path stroke="null" fill="#cf2513" d="m204.246336,8.005735c1.062838,-0.213986 2.14977,-0.021257 3.219693,-0.172889c0.847435,0.120456 1.701958,0.02976 2.553645,0.080776c0.887117,0.157301 1.796906,0.121873 2.678352,0.337276c1.614097,0.267834 3.192768,0.792167 4.601382,1.633936c0.37837,0.232406 0.824764,0.395375 1.099683,0.766659c-0.204063,-0.008503 -0.650457,-0.12329 -0.494574,0.21682c0.238077,-0.110536 0.490322,-0.170055 0.759576,-0.178558c0.495991,0.439306 0.990565,0.904123 1.599925,1.186128c0.870109,0.413798 1.679284,0.955136 2.413352,1.578669c1.70621,1.599925 2.495543,3.904159 2.974528,6.136119c0.148798,1.102517 0.623532,2.298565 0.045348,3.355735c-0.344359,0.813427 -1.26407,1.156368 -2.078911,1.252733c-2.267388,0.015588 -4.536194,-0.007086 -6.803582,0.00992c-0.746822,0.028342 -1.490807,-0.230989 -2.091665,-0.661794c-0.939551,-0.803504 -1.132277,-2.083162 -1.526238,-3.18568c-0.729814,-2.166773 -2.691106,-3.972181 -5.012345,-4.19325c-2.489874,-0.318853 -5.036436,1.145031 -6.140371,3.376991c-0.466231,0.889949 -0.746822,1.870594 -0.795001,2.875329c-0.157301,0.521502 -0.032594,1.045835 0.036843,1.568751c0,0.853104 0.35003,1.646691 0.632035,2.436023c0.945219,2.127096 2.773299,3.714267 4.7601,4.852213c1.282492,0.826178 2.709529,1.374603 4.096888,1.992466c3.870148,1.659445 7.951445,3.080815 11.256166,5.773338c1.516315,1.129443 2.7237,2.637255 3.671751,4.261272c1.222973,2.10017 1.842254,4.497932 2.100168,6.89853c-0.060934,0.717062 0.174306,1.412868 0.145964,2.129927c-0.018423,0.739736 0.046765,1.485141 -0.110536,2.214955c-0.232406,3.739775 -1.431288,7.536233 -3.952341,10.376137c-1.832331,1.918776 -4.188998,3.287713 -6.712886,4.077048c-1.230059,0.371284 -2.470034,0.745402 -3.749692,0.901286c-1.261235,0.240911 -2.547979,0.289091 -3.817714,0.483237c-1.703376,0.031177 -3.409585,0.012754 -5.112961,0.00992c-1.720381,-0.213986 -3.457768,-0.31885 -5.154057,-0.69864c-2.372256,-0.532836 -4.745928,-1.329255 -6.700132,-2.81723c-2.919263,-2.066157 -4.444081,-5.576358 -4.93582,-9.028457c-0.117621,-0.87436 -0.294762,-1.792652 -0.043931,-2.655678c0.334439,-0.993399 1.368934,-1.595674 2.373673,-1.667947c2.175275,0.001417 4.351968,0.001417 6.52866,0.001417c0.692971,0.004251 1.424202,-0.08361 2.068991,0.239494c0.928214,0.350027 1.614097,1.190376 1.833751,2.152601c0.372701,1.585754 0.932463,3.225359 2.149767,4.37039c1.71613,1.853591 4.602799,2.341079 6.919786,1.448293c2.264554,-0.87436 3.91833,-3.076561 4.231512,-5.470074c0.466234,-2.417604 -0.208315,-5.027933 -1.762895,-6.933958c-0.460563,-0.527168 -0.972142,-1.004736 -1.472384,-1.48939c-2.117173,-1.744472 -4.667986,-2.828567 -7.181952,-3.86448c-2.495545,-1.086929 -5.064779,-2.056237 -7.370429,-3.524372c-1.147865,-0.661792 -2.173858,-1.507812 -3.163006,-2.380756c-2.625921,-2.519637 -4.119562,-6.076603 -4.424244,-9.673246c-0.250828,-1.55316 -0.079356,-3.133249 -0.130373,-4.70058c-0.042514,-0.620698 0.150212,-1.222973 0.145961,-1.840837c0.09353,-1.813909 0.922545,-3.460599 1.616931,-5.103038c0.881449,-2.002389 2.263137,-3.768118 3.973598,-5.127132c2.919263,-2.275891 6.615107,-3.291964 10.250013,-3.626405m0.150215,1.565914c-2.852658,0.299013 -5.739327,0.923962 -8.217867,2.424689c-1.883348,1.139363 -3.440759,2.808727 -4.451166,4.762934c-1.422785,2.936266 -1.964124,6.243818 -1.867759,9.48902c-0.069439,1.578669 0.216817,3.148834 0.581018,4.679321c0.279171,1.290995 0.853104,2.494128 1.496475,3.640577c1.366103,2.142681 3.386911,3.810629 5.610369,5.003842c2.332576,1.322172 4.838039,2.304234 7.315162,3.316055c1.465299,0.705725 3.021296,1.23431 4.394481,2.122842c1.847922,1.02741 3.606566,2.363753 4.704832,4.204589c0.613612,1.115272 1.188962,2.28156 1.378854,3.552712c0.484654,2.801642 -0.046765,5.886708 -1.850754,8.138508c-1.538992,1.981129 -4.129482,2.970279 -6.596685,2.875332c-2.236212,-0.022674 -4.486595,-0.963639 -5.924968,-2.702443c-0.929631,-1.180459 -1.560246,-2.586241 -1.869179,-4.054374c-0.10345,-0.406712 -0.147381,-0.838935 -0.354278,-1.210219c-0.266419,-0.463397 -0.809175,-0.726982 -1.33776,-0.692971c-2.411935,0.014171 -4.823867,0.001417 -7.235803,0.008503c-0.352861,-0.032594 -0.617864,0.239494 -0.824764,0.486071c-0.296176,0.344361 -0.212566,0.836101 -0.188475,1.25415c0.243743,1.727467 0.562596,3.47619 1.337757,5.056276c0.480402,0.902706 1.00899,1.791237 1.713295,2.540893c0.783667,0.848852 1.758643,1.492224 2.74354,2.083162c1.27399,0.588104 2.573487,1.152117 3.955176,1.435539c1.608431,0.335859 3.232447,0.660377 4.880555,0.702891c1.782735,0.225323 3.585306,0.065188 5.376543,0.116204c3.792206,-0.299013 7.748799,-0.827598 11.035097,-2.889503c1.01749,-0.599441 1.947118,-1.359017 2.698192,-2.274474c1.765729,-1.853591 2.596159,-4.373225 3.086481,-6.834759c0.204066,-1.626851 0.405298,-3.263621 0.365618,-4.906061c-0.116204,-1.80966 -0.35003,-3.623571 -0.884283,-5.362375c-0.78083,-2.389258 -2.240463,-4.573039 -4.217341,-6.134702c-3.008542,-2.559313 -6.806417,-3.836137 -10.370468,-5.399217c-2.667015,-1.031661 -5.292933,-2.263137 -7.544733,-4.048706c-0.681634,-0.687303 -1.456799,-1.305166 -1.954207,-2.14835c-0.436472,-0.634869 -0.837515,-1.298081 -1.095432,-2.02648c-0.512996,-1.198879 -0.600858,-2.511131 -0.718479,-3.792206c0.136044,-1.907439 0.491739,-3.92825 1.750141,-5.440314c0.705725,-0.854523 1.483724,-1.704793 2.518219,-2.159687c1.227224,-0.690137 2.664181,-0.914043 4.057209,-0.86586c1.660862,0.058102 3.379826,0.561179 4.577288,1.768563c1.496478,1.289578 2.294314,3.198434 2.69536,5.093121c0.136041,0.690137 0.80067,1.249898 1.513481,1.220139c2.172441,0.00992 4.346299,-0.008503 6.521574,0.001417c0.633452,0.052434 1.249898,-0.515831 1.174791,-1.166288c-0.187058,-1.778483 -0.714225,-3.511618 -1.417116,-5.151223c-0.35995,-0.850269 -1.177625,-1.402945 -2.0364,-1.663696c-0.857355,-0.31885 -1.779898,-0.082193 -2.664181,-0.206897c-0.841767,-0.114787 -1.713295,-0.102033 -2.515382,-0.415217c-0.932465,-0.300428 -1.573003,-1.142197 -1.930115,-2.01514c-0.155884,-0.362784 0.034011,-0.75249 -0.01984,-1.125191c-0.195563,-0.473317 -0.697223,-0.68872 -1.139363,-0.864443c-1.94287,-0.66746 -4.017529,-0.490322 -6.035504,-0.501659c-0.739736,0.008503 -1.485141,-0.034011 -2.219206,0.075108z" id="svg_11"></path><path stroke="null" fill="#cf2513" d="m129.820734,9.405845c0.651875,-0.447809 1.468133,-0.596604 2.246132,-0.632035c2.083162,0 4.16491,0.008503 6.248072,-0.002832c0.701474,-0.001417 1.407197,0.138875 2.049151,0.426552c0.592355,0.272085 0.929631,0.875778 1.181876,1.448293c0.304682,0.673131 0.208317,1.425622 0.215403,2.142681c-0.001417,2.848407 0,5.696813 -0.001417,8.54522c-0.01984,0.790753 -0.189895,1.571583 -0.138878,2.366587c0.00992,14.028048 0,28.056096 0.004251,42.084144c0.005668,0.749656 0.076525,1.541823 -0.279174,2.233377c-0.385455,1.010404 -1.55316,1.43979 -2.559313,1.428456c-1.198882,-0.096364 -2.400598,-0.039679 -3.600897,-0.052434c-1.883348,0.008503 -3.766698,-0.015588 -5.648631,0.007086c-0.919708,0.140293 -1.883348,0.038262 -2.727951,-0.357115c-0.806338,-0.487488 -1.394442,-1.296661 -1.679284,-2.189447c-2.061905,-7.30099 -4.116725,-14.603398 -6.16021,-21.908639c-0.853104,-2.82715 -1.456796,-5.739327 -2.61033,-8.465861c-0.476151,-0.979228 -0.98773,-2.14835 -2.087414,-2.546559l-0.032594,-0.015588c-0.279174,-1.040164 -0.582435,-2.073245 -0.861609,-3.113409c0.212569,-0.09353 0.433637,-0.230989 0.6788,-0.165801c1.044415,0.188475 1.964126,0.850269 2.601827,1.682119c0.850272,1.190376 1.030247,2.678352 1.48089,4.037366c1.519149,5.308524 2.96036,10.639719 4.496514,15.943992c1.302332,4.771434 2.675518,9.525865 4.003358,14.288799c0.194143,0.541339 0.674549,0.942382 1.187545,1.173371c0.498825,0.172889 1.040164,0.104867 1.560246,0.116204c2.977365,-0.015588 5.95331,-0.004251 8.930675,-0.001417c0.446392,-0.008503 0.950885,-0.017005 1.300915,-0.341524c0.351444,-0.282008 0.486071,-0.741153 0.48182,-1.177625c0.001417,-18.140524 0.001417,-36.282463 0.002834,-54.422987c0.039679,-0.712811 -0.460563,-1.514898 -1.237144,-1.502144c-2.264554,-0.043931 -4.531943,0.015588 -6.796497,-0.021257c-0.352861,0.011337 -0.742571,-0.024091 -1.042998,0.191309c-0.393958,0.259334 -0.617864,0.724148 -0.606527,1.190379c0.004251,9.968005 0,19.93743 0.002834,29.905435c0.007086,1.170539 -0.028342,2.362336 -0.345776,3.49603c-0.325939,1.186128 -1.417119,1.978295 -2.536642,2.34533c-0.766659,0.083608 -1.431288,-0.442143 -2.050568,-0.824764c-1.281075,-0.902703 -1.621182,-2.523888 -2.040648,-3.933919c-2.727954,-10.016187 -5.470076,-20.02954 -8.18669,-30.048565c-0.213983,-0.668877 -0.317433,-1.453962 -0.901286,-1.920193c-0.31035,-0.282008 -0.726982,-0.403878 -1.139363,-0.395375c-3.491779,0.001417 -6.984974,0.012754 -10.476753,-0.002834c-0.412381,-0.001417 -0.881446,0.017005 -1.167705,0.359947c-0.300428,0.250831 -0.361364,0.653292 -0.357113,1.021741c0.005668,18.283654 -0.002834,36.568722 0.005668,54.852376c-0.017005,0.714225 0.690137,1.261233 1.373188,1.221553c2.316985,0.002834 4.63539,0.007086 6.953795,-0.001417c0.503076,0.035428 0.959388,-0.303262 1.153534,-0.753905c0.260751,-0.59519 0.199815,-1.259818 0.2069,-1.891853c-0.012754,-9.636401 -0.002834,-19.272801 -0.007086,-28.909199c-0.034011,-1.03875 0.032594,-2.080331 0.212566,-3.103489c0.161552,-1.016073 0.955139,-1.813911 1.839419,-2.267388c0.085027,0.080776 0.170055,0.161552 0.256497,0.242328c-0.005668,0.704305 0.01984,1.411448 0.001417,2.115756c-0.120453,0.627783 -0.435055,1.190379 -0.629198,1.795489c-0.537087,1.924444 -0.099199,3.939587 -0.391126,5.892374c-0.111953,0.70856 0.09353,1.415702 0.021257,2.125676c-0.08361,0.942385 -0.085027,1.896104 0.046765,2.834235c0.14313,0.899871 -0.119038,1.794072 -0.10345,2.69536c-0.049599,1.137946 0.250831,2.270223 0.07369,3.406748c-0.119038,0.613612 0.092113,1.227224 0.004251,1.840837c-0.080776,0.564013 0,1.132277 -0.036845,1.699124c-0.052434,0.613612 0.171472,1.221556 0.051016,1.835168c-0.154464,0.938131 -0.053851,1.890433 -0.086445,2.83707c-0.045345,0.949468 0.175723,1.886182 0.144547,2.835653c0.039679,0.857355 -0.236657,1.70621 -0.070856,2.56073c0.036845,0.952305 -0.077942,2.037817 -0.795001,2.742122c-0.63912,0.647623 -1.585757,0.847438 -2.465786,0.858775c-1.795489,0.001417 -3.592394,-0.00992 -5.389297,0.002834c-0.735485,0.021257 -1.489392,-0.021257 -2.175275,-0.307516c-0.728399,-0.262165 -1.231476,-0.926794 -1.492227,-1.631102c-0.306096,-0.809173 -0.22532,-1.687787 -0.228154,-2.532388c-0.001417,-1.745889 0.002834,-3.491779 -0.001417,-5.237668c0.002834,-0.568264 0.136041,-1.126609 0.144544,-1.694873c0,-12.75831 0.001417,-25.518039 -0.001417,-38.276349c-0.014171,-0.612195 -0.160132,-1.21447 -0.145961,-1.826665c0.014171,-1.704793 0.008503,-3.409583 0.002834,-5.114375c0.017005,-0.770913 0.085025,-1.58434 0.490322,-2.26172c0.518665,-0.880032 1.568749,-1.333509 2.562148,-1.34768c3.351483,0.002834 6.704384,0.008503 10.055867,-0.001417c1.042998,0.007086 2.152601,0.393958 2.788887,1.259818c0.751073,0.950885 0.906957,2.186612 1.231476,3.317472c2.053403,7.527727 4.105391,15.055458 6.16021,22.581771c0.663212,2.311319 1.154951,4.693492 2.207869,6.871602c0.358533,0.610778 0.68872,1.333509 1.37744,1.635356l0.053851,0.029757c0.087859,0.324522 0.174304,0.64904 0.284839,0.966476c0.280591,-0.396795 0.046765,-0.962225 0.127541,-1.42137c0.753908,-0.170052 1.020324,-0.949468 1.255567,-1.591423c0.405295,-1.325006 0.500242,-2.720866 0.493157,-4.101139c0.184223,-1.218719 0.107701,-2.450195 0.119038,-3.677419c-0.002834,-7.843746 0.004251,-15.68891 -0.004251,-23.532656c-0.011337,-0.746822 0.36845,-1.478055 0.92396,-1.965544z" id="svg_12"></path><path stroke="null" fill="#cf2513" d="m72.512495,9.621248c0.612195,-0.361364 1.320755,-0.562596 2.030729,-0.58527c5.808766,0.001417 11.61895,0.005668 17.427713,-0.001417c1.013241,0.004251 2.125679,0.301848 2.750625,1.16062c0.361367,0.507328 0.605109,1.115272 0.589521,1.745889c-0.011337,1.560246 -0.001417,3.120492 -0.004251,4.679321c-0.015588,1.400114 -1.167702,2.770468 -2.62025,2.767633c-4.393064,-0.001417 -8.787546,0 -13.182027,-0.001417c-1.065672,0.072271 -2.151187,0.160132 -3.150254,0.568264c0.257917,0.063768 0.518665,0.128956 0.78225,0.177138c-0.624949,0.01984 -1.248481,0.008503 -1.872013,0.008503c-0.002834,0.218237 -0.004251,0.436472 -0.007086,0.654709c-0.732651,0.889949 -0.966473,2.067574 -0.955136,3.1956c-0.174306,1.126609 -0.094947,2.265971 -0.119038,3.399665c-0.007086,0.787919 0.14313,1.565914 0.168638,2.352416c0.154464,1.133694 0.67738,2.324073 1.724632,2.896589c0.831847,0.433637 1.77848,0.657543 2.718031,0.636286c3.921165,-0.011337 7.842329,0.005668 11.764911,-0.008503c0.918291,0.007086 1.925861,0.178555 2.601827,0.855938c0.507328,0.549842 0.748239,1.315086 0.732651,2.054822c-0.012754,1.368934 -0.008503,2.739288 -0.001417,4.108222c0.012754,0.736902 -0.191312,1.517735 -0.732651,2.043485c-0.610778,0.588104 -1.472384,0.875778 -2.312736,0.863023c-3.969347,-0.015588 -7.937276,0.001417 -11.906621,-0.008503c-0.966476,-0.008503 -1.940035,0.188478 -2.790305,0.65896c-0.293345,0.045348 -0.590938,0.017005 -0.8857,0.01984c-0.002834,0.209734 -0.004251,0.418049 -0.005668,0.629201c-0.829012,1.000484 -0.970725,2.346747 -1.067089,3.592394c-0.001417,1.93153 -0.005668,3.861645 0.001417,5.793175c0.10345,1.262653 0.208317,2.657098 1.094015,3.649079c0.92538,1.069924 2.451615,1.296661 3.790792,1.255567c4.251352,-0.005668 8.502704,0.001417 12.752641,-0.002834c1.1011,0.039677 2.411935,0.253663 3.025545,1.288158c0.799256,1.193213 0.55551,2.676935 0.58527,4.027449c-0.029757,1.033078 0.127541,2.101585 -0.216817,3.099235c-0.238077,0.722731 -0.70856,1.424205 -1.446879,1.701958c-1.343426,0.524336 -2.810144,0.327356 -4.217341,0.362784c-8.268881,0.004251 -16.537765,-0.007086 -24.808063,0.005668c-1.067089,0.038262 -2.214955,-0.12329 -3.080812,-0.795004c-0.583853,-0.582435 -0.831849,-1.445459 -0.816261,-2.256051c0.017005,-2.175275 -0.005668,-4.350551 0.011337,-6.525826c0.185643,-2.162521 0.671714,-4.283946 1.136528,-6.401122c2.090248,-9.49894 4.129482,-19.009216 6.226815,-28.506739c0.316016,-1.191796 0.466231,-2.419021 0.780833,-3.610817c0.671712,-3.019876 1.319335,-6.045423 1.983963,-9.066717c0.195563,-0.965059 0.683051,-1.920196 1.517732,-2.481374m1.361851,1.092598c-0.609361,0.240911 -1.058587,0.831849 -1.108186,1.490807c-1.408614,6.262243 -2.702443,12.552829 -4.115311,18.81649c-0.582435,2.631587 -1.092598,5.278762 -1.734552,7.89618c-1.288158,6.137536 -2.6741,12.253816 -3.972178,18.389935c-0.161552,1.215887 -0.406715,2.431775 -0.35995,3.664668c0.002834,1.843668 -0.004251,3.688756 0.005668,5.532427c0.017005,0.724145 0.843186,1.03733 1.463884,1.030244c9.399741,0 18.800899,0 28.20064,-0.001417c0.474737,-0.024091 1.054335,-0.131793 1.293829,-0.598024c0.238077,-0.486071 0.145964,-1.04725 0.162969,-1.568749c-0.014171,-1.180459 0,-2.359501 -0.004251,-3.539961c0.026925,-0.564013 -0.311767,-1.142197 -0.861609,-1.320752c-0.602275,-0.194146 -1.245647,-0.117621 -1.867759,-0.128958c-4.394484,0.002834 -8.788966,0.005668 -13.183447,-0.002834c-1.393025,-0.052434 -2.906509,-0.406715 -3.865897,-1.49081c-0.905537,-1.001902 -1.183294,-2.400595 -1.22439,-3.712847c-0.167221,-1.22439 -0.100616,-2.460117 -0.109119,-3.69159c0.014171,-1.183294 -0.024091,-2.366587 0.012754,-3.548464c0.175723,-1.21447 0.052434,-2.48846 0.566847,-3.634908c0.537087,-1.39586 1.937201,-2.362333 3.403917,-2.521051c1.147865,-0.269254 2.328325,-0.155884 3.49603,-0.182809c3.588143,-0.002834 7.1777,-0.001417 10.765843,0.005668c0.721314,0.034011 1.509229,-0.538505 1.452544,-1.315083c0,-1.275407 -0.00992,-2.550813 0.001417,-3.82622c-0.017005,-0.365615 0.011337,-0.78083 -0.223903,-1.086929c-0.348613,-0.369867 -0.87578,-0.504494 -1.36752,-0.507328c-4.302368,0.017005 -8.603322,-0.005668 -12.904274,0.004251c-1.354766,-0.053851 -2.835653,-0.374118 -3.787955,-1.414282c-0.90554,-0.926797 -1.231476,-2.258886 -1.292412,-3.518704c-0.221071,-1.550326 -0.090696,-3.116243 -0.126124,-4.675072c-0.046765,-1.025993 0.134627,-2.040648 0.184226,-3.06239c0.120456,-0.81201 0.327353,-1.635354 0.755325,-2.343913c0.70714,-0.963639 1.813909,-1.619765 2.990116,-1.811077c0.743988,-0.171472 1.512066,-0.058102 2.26172,-0.174306c0.471902,-0.069436 0.950888,-0.086442 1.428456,-0.077939c4.013278,0.004251 8.026555,-0.001417 12.03983,0.007086c0.415217,0 0.933882,-0.052434 1.152117,-0.464817c0.43364,-0.78083 0.277756,-1.707627 0.296179,-2.56073c-0.031177,-1.16062 0.131793,-2.356667 -0.222489,-3.481859c-0.222486,-0.440723 -0.735482,-0.671714 -1.21447,-0.654709c-5.906545,-0.005668 -11.813093,0.008503 -17.718221,-0.004251c-0.22674,0.008503 -0.454894,0.018423 -0.670297,0.085027z" id="svg_13"></path><path stroke="null" fill="#cf2513" d="m146.776547,10.356733c0.478985,-0.936717 1.588588,-1.302332 2.579153,-1.320755c10.39456,0.002834 20.790534,0.001417 31.18651,0.001417c0.857355,-0.005668 1.768561,-0.085027 2.555062,0.330187c0.996233,0.420886 1.473801,1.548912 1.485138,2.574904c-0.002834,1.840837 -0.007086,3.683088 0.007086,5.525341c0.066605,1.339177 -1.228639,2.38501 -2.482789,2.475706c-1.853591,0.046765 -3.71285,-0.055268 -5.565021,0.045348c-1.154951,0.034008 -2.196532,0.600858 -3.34298,0.681631c-0.004251,0.228157 -0.004251,0.456314 -0.005668,0.684468c-0.647623,0.768079 -0.943802,1.775649 -0.948054,2.770465c0,2.835653 0.007086,5.672722 -0.002834,8.508375c-0.017005,1.465301 0.059519,2.933434 -0.051014,4.395899c0.012754,0.70856 0.09211,1.414285 0.056682,2.124262c-0.002834,8.454524 0,16.907629 -0.001417,25.362156c0.004251,1.174788 0.087862,2.448778 -0.534253,3.498861c-0.52575,0.916877 -1.663696,1.191796 -2.642924,1.24423c-2.080328,0.005668 -4.160656,-0.005668 -6.240987,0.002834c-0.962222,0.01984 -1.988215,0.01984 -2.844155,-0.48182c-0.863023,-0.524333 -1.200299,-1.601343 -1.201716,-2.563565c0.011337,-13.74746 -0.005668,-27.49492 0.008503,-41.243794c-0.039677,-1.334926 -0.201229,-2.829984 -1.204548,-3.817714c-0.933882,-0.929628 -2.322656,-1.086929 -3.571138,-1.193213c-1.645273,-0.036845 -3.291964,0.007086 -4.93582,-0.014171c-0.989147,-0.015588 -2.02648,-0.532836 -2.420438,-1.478055c-0.54559,-1.256981 -0.279171,-2.654261 -0.340107,-3.979264c0.052434,-1.378857 -0.21682,-2.862578 0.457729,-4.133733m1.948535,-0.155884c-0.726979,0.131793 -1.302329,0.850272 -1.273987,1.588588c0.002834,1.701958 0.004251,3.405334 -0.004251,5.107292c-0.012754,0.490322 0.059519,1.010407 0.352861,1.418536c0.415215,0.483237 1.084095,0.646206 1.699124,0.640538c1.748724,-0.007086 3.497447,-0.011337 5.246171,-0.001417c1.176208,0.079359 2.423272,0.320267 3.331643,1.129443c1.061421,0.827595 1.626851,2.154018 1.690621,3.479024c0.004251,0.806338 0.211152,1.598508 0.155884,2.406264c-0.00992,13.560399 0.004251,27.119382 -0.007086,40.679781c-0.038262,0.797836 0.698637,1.493641 1.483721,1.483721c2.696774,-0.001417 5.394966,-0.011337 8.091743,0.002834c0.83043,0.052434 1.546075,-0.704305 1.622599,-1.493641c-0.002834,-13.884918 0.004251,-27.772673 -0.002834,-41.657592c-0.049599,-1.01749 0.107701,-2.036397 0.405295,-3.007122c0.181392,-0.726982 0.722731,-1.282492 1.225807,-1.808243c1.04725,-0.994816 2.579153,-1.220139 3.96793,-1.218722c1.650942,-0.005668 3.301884,0.01984 4.952826,-0.007086c0.779416,-0.008503 1.694873,-0.48182 1.782735,-1.326423c0.007086,-2.032146 0.001417,-4.067126 -0.001417,-6.099274c0.025508,-0.786499 -0.753908,-1.35618 -1.487975,-1.349094c-7.085587,0.007086 -14.171175,-0.004251 -21.255348,0.002834c-3.992021,0.018423 -7.988293,-0.046765 -11.976062,0.02976l0,-0.000003z" id="svg_14"></path><path stroke="null" fill="#cf2513" d="m22.758909,11.649143c-0.25508,-1.190376 0.838935,-2.402012 2.037817,-2.35383c2.975948,0 5.951893,0.00992 8.926424,-0.002834c0.707142,-0.034011 1.388777,0.283422 1.900356,0.755322c0.605107,0.627783 0.872943,1.499312 0.967891,2.348164c0.2154,2.016557 0.581018,4.011861 0.813424,6.025584c1.495061,10.472501 2.889503,20.959171 4.402987,31.426002c0.277754,1.526238 0.660375,3.194185 1.930113,4.217344c0.00992,0.059519 0.031177,0.177141 0.042514,0.23666c0.048182,-0.005668 0.14313,-0.015588 0.191312,-0.021257c0.290508,0.045345 0.613612,0.114784 0.863023,-0.096364c0.705725,-0.505911 1.282492,-1.222973 1.527655,-2.064742c0.796419,-2.40343 0.935297,-4.95566 1.317918,-7.4427c1.547495,-10.979829 3.055307,-21.968159 4.605633,-32.949405c0.2069,-1.283907 1.334926,-2.488457 2.69394,-2.436023c2.692526,0.012754 5.386466,0.005668 8.080406,0.001417c0.607944,0.008503 1.256984,-0.066605 1.822414,0.213983c0.537087,0.233826 0.91404,0.749656 1.074175,1.300915c0.161552,0.901286 -0.165804,1.784152 -0.335856,2.658512c-2.431775,11.213652 -4.83379,22.431556 -7.257062,33.646625c-0.928211,4.228681 -1.779898,8.475781 -2.78747,12.687456c-0.486071,2.260303 -0.932463,4.527691 -1.458213,6.778074c-0.306099,1.34626 -1.550326,2.453029 -2.96036,2.423269c-4.156405,-0.001417 -8.314229,-0.002834 -12.472051,0c-0.749656,-0.005668 -1.533323,0.079359 -2.240463,-0.223903c-0.889951,-0.316019 -1.49081,-1.156368 -1.748724,-2.034983c-0.427972,-1.523401 -0.666046,-3.089315 -1.033081,-4.625473c-2.345328,-10.840948 -4.669401,-21.686151 -7.014731,-32.527102c-1.289578,-5.981653 -2.556479,-11.967557 -3.889988,-17.94071m2.227709,-0.938131c-0.430803,0.158718 -0.923962,0.57535 -0.755325,1.089763c0.177141,0.809175 0.35995,1.619765 0.52575,2.433192c0.423718,1.574417 0.630618,3.198434 1.04725,4.775685c3.310387,15.422493 6.656204,30.839315 9.973676,46.264642c0.144544,0.681634 0.213983,1.463881 0.743985,1.975461c0.511579,0.33019 1.147865,0.398212 1.743055,0.420886c3.773784,-0.011337 7.548987,0.001417 11.322771,-0.008503c0.814841,-0.005668 1.687787,0.097779 2.434609,-0.30043c0.52575,-0.273502 0.743985,-0.872943 0.836098,-1.422785c0.459146,-2.471454 1.086929,-4.907481 1.557412,-7.377515c3.374157,-15.538697 6.714303,-31.084477 10.068621,-46.626006c0.213986,-0.69864 -0.449226,-1.354766 -1.132277,-1.302332c-2.645758,-0.011337 -5.291516,0.007086 -7.935857,-0.002834c-0.629201,-0.01984 -1.378857,0.179975 -1.616934,0.833267c-0.284839,0.878612 -0.265,1.81816 -0.436472,2.719448c-0.196978,1.00757 -0.262165,2.03498 -0.456311,3.04255c-0.504494,4.007609 -1.13086,7.998213 -1.641022,12.005822c-0.273505,2.032146 -0.632035,4.052957 -0.848855,6.092188c-0.501659,3.252285 -0.877195,6.524411 -1.394442,9.773862c-0.230991,2.036397 -0.581018,4.058626 -0.829015,6.093606c-0.12187,0.980645 -0.297593,1.957038 -0.518665,2.92068c-0.22532,1.018907 -0.967891,1.883348 -1.90177,2.331159c-0.664629,0.369867 -1.503564,0.559761 -2.224875,0.239491c-0.59519,-0.266417 -1.203133,-0.549842 -1.683536,-1.001902c-0.559761,-0.547007 -0.726982,-1.340594 -0.902706,-2.071825c-0.350027,-1.658028 -0.478985,-3.3529 -0.772327,-5.020848c-0.409549,-3.423757 -0.984896,-6.824839 -1.407199,-10.245761c-1.200299,-8.485701 -2.362336,-16.97707 -3.559798,-25.462771c-0.070856,-0.57535 -0.034011,-1.23431 -0.452063,-1.693456c-0.354278,-0.429386 -0.935297,-0.56543 -1.468133,-0.558344c-2.553648,0.004251 -5.105875,0.015588 -7.65952,0.001417c-0.219654,0.005668 -0.444977,0.014171 -0.656126,0.082193z" id="svg_15"></path></g><g stroke="null" id="#eb2a16ff"><path stroke="null" fill="#eb2a16" d="m204.396551,9.571649c0.734068,-0.109119 1.479473,-0.066605 2.219206,-0.075108c2.017977,0.011337 4.092637,-0.165801 6.035504,0.501659c0.442143,0.175723 0.943802,0.391126 1.139363,0.864443c0.053851,0.372701 -0.136041,0.762408 0.019842,1.125191c0.357113,0.872943 0.99765,1.714713 1.930113,2.01514c0.80209,0.313185 1.673616,0.30043 2.515385,0.415217c0.88428,0.124704 1.806823,-0.111953 2.664181,0.206897c0.858772,0.260751 1.67645,0.813427 2.036397,1.663696c0.702891,1.639605 1.230059,3.37274 1.417119,5.151223c0.075108,0.650457 -0.541339,1.218722 -1.174791,1.166288c-2.175275,-0.00992 -4.349133,0.008503 -6.521577,-0.001417c-0.712808,0.02976 -1.377437,-0.530002 -1.513481,-1.220139c-0.401044,-1.894687 -1.198882,-3.803543 -2.695357,-5.093121c-1.197465,-1.207385 -2.916429,-1.710461 -4.577291,-1.768563c-1.393025,-0.048182 -2.829984,0.175723 -4.057209,0.86586c-1.034495,0.454894 -1.812494,1.305164 -2.518217,2.159687c-1.258401,1.512064 -1.614097,3.532875 -1.750141,5.440314c0.117621,1.281075 0.20548,2.593327 0.718479,3.792206c0.257914,0.728399 0.658957,1.391611 1.095432,2.02648c0.497408,0.843184 1.27257,1.461047 1.954204,2.14835c2.2518,1.785569 4.877718,3.017045 7.544736,4.048706c3.564049,1.56308 7.361927,2.839904 10.370466,5.399217c1.976881,1.561663 3.436511,3.745444 4.217344,6.134702c0.534253,1.738804 0.768076,3.552715 0.88428,5.362375c0.039679,1.642439 -0.161552,3.27921 -0.365615,4.906061c-0.490322,2.461534 -1.320755,4.981168 -3.086484,6.834759c-0.751071,0.915457 -1.680702,1.675033 -2.698192,2.274474c-3.286295,2.061905 -7.242888,2.59049 -11.035094,2.889503c-1.791237,-0.051016 -3.593812,0.109119 -5.376546,-0.116204c-1.648108,-0.042514 -3.272124,-0.367033 -4.880552,-0.702891c-1.381688,-0.283422 -2.681186,-0.847435 -3.955176,-1.435539c-0.984896,-0.590938 -1.959872,-1.23431 -2.74354,-2.083162c-0.704308,-0.749656 -1.232893,-1.638191 -1.713295,-2.540893c-0.775164,-1.580086 -1.094015,-3.328809 -1.33776,-5.056276c-0.024091,-0.418049 -0.107699,-0.909789 0.188478,-1.25415c0.2069,-0.246577 0.4719,-0.518665 0.824764,-0.486071c2.411932,-0.007086 4.823867,0.005668 7.235803,-0.008503c0.528585,-0.034011 1.071341,0.229574 1.337757,0.692971c0.2069,0.371284 0.250831,0.803507 0.354281,1.210219c0.30893,1.468133 0.939548,2.873915 1.869176,4.054374c1.438376,1.738801 3.688759,2.679769 5.924971,2.702443c2.4672,0.094947 5.057693,-0.894203 6.596682,-2.875332c1.803991,-2.2518 2.33541,-5.336867 1.850756,-8.138508c-0.189895,-1.271153 -0.765245,-2.437441 -1.378857,-3.552712c-1.098266,-1.840837 -2.856909,-3.17718 -4.704829,-4.204589c-1.373188,-0.888532 -2.929183,-1.417116 -4.394481,-2.122842c-2.477123,-1.011821 -4.982588,-1.993886 -7.315162,-3.316055c-2.223458,-1.193213 -4.244269,-2.861161 -5.610369,-5.003842c-0.643372,-1.146448 -1.217305,-2.349582 -1.496478,-3.640577c-0.364198,-1.530486 -0.650457,-3.100652 -0.581018,-4.679321c-0.096364,-3.245202 0.444974,-6.552754 1.867762,-9.489022c1.010404,-1.954204 2.567816,-3.623568 4.451166,-4.762931c2.47854,-1.500727 5.365206,-2.125676 8.217864,-2.424689z" id="svg_16"></path><path stroke="null" fill="#eb2a16" d="m148.725083,10.20085c3.987769,-0.076525 7.984042,-0.011337 11.976062,-0.02976c7.08417,-0.007086 14.16976,0.004251 21.255348,-0.002834c0.734068,-0.007086 1.513484,0.562596 1.487975,1.349097c0.002834,2.032146 0.008503,4.067126 0.001417,6.099274c-0.087862,0.844601 -1.003321,1.317918 -1.782735,1.32642c-1.650942,0.026925 -3.301884,0.001417 -4.952826,0.007086c-1.388777,-0.001417 -2.92068,0.223906 -3.96793,1.218722c-0.503076,0.52575 -1.044415,1.081261 -1.225807,1.808243c-0.297596,0.970725 -0.454894,1.989632 -0.405295,3.007122c0.007086,13.884921 0,27.772673 0.002834,41.657592c-0.076525,0.789336 -0.79217,1.546077 -1.622602,1.493644c-2.696774,-0.014171 -5.394966,-0.004251 -8.09174,-0.002834c-0.785084,0.00992 -1.521984,-0.685886 -1.483724,-1.483724c0.011337,-13.560399 -0.002834,-27.119382 0.007086,-40.679779c0.055268,-0.807758 -0.15163,-1.599928 -0.155881,-2.406267c-0.063771,-1.325006 -0.629201,-2.651426 -1.690621,-3.479024c-0.908374,-0.809173 -2.155436,-1.050084 -3.331643,-1.129443c-1.748724,-0.00992 -3.497447,-0.005668 -5.246171,0.001417c-0.615029,0.005668 -1.283909,-0.157301 -1.699124,-0.640538c-0.293345,-0.408129 -0.365615,-0.928211 -0.352861,-1.418534c0.008503,-1.701958 0.007086,-3.405334 0.004251,-5.107292c-0.028342,-0.738319 0.547007,-1.456799 1.273987,-1.588588z" id="svg_17"></path><path stroke="null" fill="#eb2a16" d="m101.577578,10.776199c0.286259,-0.342944 0.755325,-0.361367 1.167705,-0.35995c3.491779,0.015591 6.984974,0.004251 10.476753,0.002834c0.412381,-0.008503 0.829012,0.11337 1.139363,0.395378c0.583853,0.466231 0.6873,1.251316 0.901286,1.920193c2.716614,10.019024 5.458737,20.032377 8.186688,30.048565c0.419469,1.410031 0.759576,3.031213 2.040651,3.933919c0.619281,0.382621 1.283907,0.908371 2.050568,0.824761c1.119523,-0.367033 2.210703,-1.1592 2.536642,-2.345328c0.317433,-1.133694 0.352861,-2.32549 0.345776,-3.49603c-0.002834,-9.968005 0.001417,-19.93743 -0.002834,-29.905435c-0.011337,-0.466231 0.212569,-0.931045 0.606527,-1.190379c0.300428,-0.2154 0.690137,-0.179975 1.042998,-0.191312c2.264554,0.036845 4.531943,-0.022674 6.796497,0.021257c0.776579,-0.012754 1.276824,0.789336 1.237144,1.502147c-0.001417,18.140521 -0.001417,36.282463 -0.002834,54.422987c0.004251,0.436472 -0.130375,0.895617 -0.481822,1.177625c-0.350027,0.324519 -0.854521,0.333022 -1.300912,0.341524c-2.977365,-0.002834 -5.953313,-0.014171 -8.930675,0.001417c-0.520082,-0.011337 -1.061421,0.056685 -1.560249,-0.116204c-0.512996,-0.230989 -0.993399,-0.632035 -1.187542,-1.173374c-1.32784,-4.762931 -2.701029,-9.517362 -4.003358,-14.288796c-1.536158,-5.304273 -2.977365,-10.635468 -4.496514,-15.943992c-0.450646,-1.359014 -0.630618,-2.84699 -1.48089,-4.037369c-0.637703,-0.831847 -1.557412,-1.493641 -2.601827,-1.682119c-0.245163,-0.065185 -0.466231,0.072273 -0.6788,0.165804c-0.038262,0.01984 -0.114787,0.058102 -0.153049,0.076525c-0.002834,0.076525 -0.007086,0.229574 -0.00992,0.306099c-0.086442,-0.080776 -0.171469,-0.161552 -0.256497,-0.242328c-0.884283,0.453477 -1.677867,1.251316 -1.839419,2.267388c-0.179975,1.023158 -0.246577,2.06474 -0.212566,3.103486c0.004251,9.636401 -0.005668,19.272801 0.007086,28.909202c-0.007086,0.632035 0.053851,1.296664 -0.2069,1.891853c-0.194146,0.450643 -0.650457,0.789333 -1.153534,0.753905c-2.318405,0.008503 -4.63681,0.004251 -6.953795,0.001417c-0.683051,0.039679 -1.390194,-0.507328 -1.373188,-1.221556c-0.008503,-18.283651 0,-36.568719 -0.005668,-54.852373c-0.004251,-0.36845 0.056685,-0.770913 0.357113,-1.021741z" id="svg_18"></path><path stroke="null" fill="#eb2a16" d="m24.98662,10.711012c0.211149,-0.068022 0.436472,-0.076525 0.656123,-0.082193c2.553648,0.014171 5.105875,0.002834 7.659523,-0.001417c0.532836,-0.007086 1.113854,0.128958 1.468133,0.558344c0.418049,0.459146 0.381204,1.118106 0.45206,1.693456c1.197465,8.485701 2.359501,16.97707 3.559801,25.462771c0.4223,3.420922 0.99765,6.822005 1.407197,10.245761c0.293345,1.667947 0.422303,3.36282 0.77233,5.020848c0.175723,0.731231 0.342944,1.524818 0.902706,2.071825c0.480402,0.45206 1.088346,0.735485 1.683536,1.001902c0.721311,0.32027 1.560246,0.130375 2.224875,-0.239491c0.93388,-0.447811 1.67645,-1.312252 1.90177,-2.331159c0.221071,-0.963642 0.396792,-1.940035 0.518665,-2.92068c0.247997,-2.034983 0.598024,-4.057209 0.829015,-6.093606c0.517248,-3.249453 0.892783,-6.521577 1.394442,-9.773862c0.21682,-2.039231 0.57535,-4.060043 0.848855,-6.092188c0.510162,-4.007609 1.136528,-7.998213 1.641022,-12.005822c0.194146,-1.00757 0.259331,-2.03498 0.456311,-3.04255c0.171472,-0.901288 0.151632,-1.840837 0.436472,-2.719451c0.238077,-0.653289 0.98773,-0.853104 1.616931,-0.833264c2.644344,0.00992 5.290101,-0.008503 7.935859,0.002834c0.683051,-0.052434 1.346263,0.603692 1.132277,1.302332c-3.354317,15.541529 -6.694464,31.087309 -10.068621,46.626006c-0.470483,2.470034 -1.098266,4.906061 -1.557412,7.377515c-0.092113,0.549842 -0.310348,1.149283 -0.836101,1.422785c-0.746819,0.398209 -1.619765,0.294762 -2.434606,0.30043c-3.773786,0.00992 -7.548987,-0.002834 -11.322771,0.008503c-0.59519,-0.022674 -1.231476,-0.090696 -1.743055,-0.420886c-0.530002,-0.511579 -0.599441,-1.293827 -0.743988,-1.975461c-3.317472,-15.425327 -6.663287,-30.842149 -9.973674,-46.264642c-0.416632,-1.577251 -0.623532,-3.201268 -1.04725,-4.775685c-0.165804,-0.813427 -0.34861,-1.624017 -0.52575,-2.433192c-0.168638,-0.514413 0.324519,-0.931045 0.755325,-1.089763z" id="svg_19"></path><path stroke="null" fill="#eb2a16" d="m73.874343,10.713846c0.215403,-0.066605 0.44356,-0.076525 0.670297,-0.085027c5.905131,0.012754 11.811676,-0.001417 17.718224,0.004251c0.478985,-0.017005 0.991982,0.213986 1.21447,0.654709c0.354278,1.125191 0.191309,2.321239 0.222486,3.481859c-0.018423,0.853104 0.137461,1.7799 -0.296176,2.56073c-0.218237,0.412383 -0.736902,0.464814 -1.152117,0.464814c-4.013278,-0.008503 -8.026555,-0.002834 -12.039833,-0.007086c-0.477568,-0.008503 -0.956554,0.008503 -1.428453,0.077942c-0.749656,0.116204 -1.517735,0.002834 -2.26172,0.174306c-1.176208,0.191312 -2.282977,0.847438 -2.990119,1.811077c-0.427969,0.70856 -0.634869,1.531903 -0.755325,2.343913c-0.049599,1.021741 -0.230989,2.036397 -0.184223,3.06239c0.035425,1.558829 -0.094947,3.124743 0.126121,4.675072c0.060936,1.259818 0.386875,2.591907 1.292412,3.518704c0.952302,1.040164 2.433192,1.360431 3.787955,1.414282c4.300954,-0.00992 8.601905,0.012754 12.904274,-0.004251c0.491742,0.002834 1.01891,0.137461 1.36752,0.507328c0.235243,0.306099 0.2069,0.721314 0.223906,1.086929c-0.011337,1.275407 -0.001417,2.550813 -0.001417,3.826217c0.056682,0.776582 -0.731234,1.349097 -1.452547,1.315086c-3.58814,-0.007086 -7.1777,-0.008503 -10.765843,-0.005668c-1.167705,0.026925 -2.348162,-0.086445 -3.496027,0.182809c-1.466718,0.158715 -2.866829,1.125191 -3.403917,2.521051c-0.514413,1.146448 -0.391126,2.420438 -0.566847,3.634908c-0.036845,1.181876 0.001417,2.36517 -0.012754,3.548461c0.008503,1.231476 -0.058102,2.467203 0.109116,3.691593c0.041097,1.312252 0.318853,2.710946 1.22439,3.712847c0.959391,1.084095 2.472871,1.438376 3.865897,1.49081c4.394484,0.008503 8.788966,0.005668 13.183447,0.002834c0.622115,0.011337 1.265487,-0.065188 1.867762,0.128956c0.549842,0.178558 0.888532,0.756742 0.861606,1.320755c0.004251,1.180459 -0.00992,2.359501 0.004251,3.539961c-0.017005,0.521499 0.075108,1.082678 -0.162969,1.568749c-0.239491,0.466231 -0.819093,0.573933 -1.293827,0.598024c-9.399744,0.001417 -18.800902,0.001417 -28.200642,0.001417c-0.620698,0.007086 -1.446879,-0.306099 -1.463884,-1.030244c-0.00992,-1.843671 -0.002834,-3.688759 -0.005668,-5.53243c-0.046762,-1.23289 0.198397,-2.448778 0.35995,-3.664665c1.298081,-6.136119 2.68402,-12.252399 3.972181,-18.389935c0.641955,-2.617418 1.152117,-5.264593 1.734552,-7.89618c1.412865,-6.263661 2.706694,-12.554246 4.115308,-18.81649c0.049599,-0.65896 0.498825,-1.249898 1.108186,-1.490807z" id="svg_20"></path></g><g stroke="null" id="#060808ff"><path stroke="null" fill="#060808" d="m185.319313,51.120122c5.317027,0.008503 10.634051,0.007086 15.949661,0.002834c-0.002834,0.439306 -0.004251,0.881446 0,1.322172c-1.096849,-0.834684 -2.513968,-1.088346 -3.863062,-1.042998c-2.411935,0.004251 -4.825287,0.005668 -7.23722,-0.001417c-1.265487,-0.038262 -2.613167,0.168635 -3.650497,0.942382c-0.80209,0.680217 -1.021741,1.771398 -1.1507,2.764796c-0.082193,-1.32784 -0.031177,-2.658512 -0.048182,-3.987769z" id="svg_21"></path><path stroke="null" fill="#060808" d="m85.06249,76.173347c0.777996,-0.633452 1.84792,-0.732651 2.810144,-0.612195c0.841767,0.103447 1.660862,0.566847 2.078911,1.323586c0.592355,1.028827 0.478985,2.260303 0.469066,3.399665c-0.654709,0.107701 -1.366103,0.011337 -2.040648,0.042514c-0.034011,-0.728399 0.093527,-1.480887 -0.111953,-2.190864c-0.201232,-0.653292 -1.064255,-0.789336 -1.605594,-0.498825c-0.410966,0.233823 -0.504494,0.751073 -0.505911,1.184711c-0.004251,2.454446 0,4.908895 -0.002834,7.364761c0.004251,0.384038 0.028342,0.812007 0.294759,1.116689c0.558344,0.576767 1.79974,0.340107 1.880516,-0.544173c0.114787,-0.99907 0.024091,-2.012309 0.051016,-3.017045c-0.33019,-0.001417 -0.657543,-0.001417 -0.986313,-0.001417c0.001417,-0.65896 0,-1.31792 0.001417,-1.976878c1.011821,0 2.022226,-0.001417 3.034047,0c0,1.478053 0.002834,2.957523 0,4.436995c-0.004251,0.965056 -0.247994,2.017974 -1.001902,2.679769c-0.786501,0.695805 -1.91311,0.804921 -2.913594,0.674549c-0.814841,-0.110536 -1.608428,-0.548424 -2.02506,-1.27399c-0.375535,-0.620698 -0.501659,-1.359017 -0.501659,-2.073242c0.002834,-2.4587 0,-4.9174 0.001417,-7.376098c0.005668,-0.970728 0.290508,-2.025063 1.074175,-2.658515l0,0.000003z" id="svg_22"></path><path stroke="null" fill="#060808" d="m28.862437,75.6646c1.00757,0 2.01514,-0.001417 3.024127,0c0.534253,3.246619 1.057169,6.494652 1.598508,9.739851c0.487491,-3.248033 0.982065,-6.494649 1.476638,-9.741268c1.004736,0.001417 2.010889,0 3.017042,0.001417c0,4.59713 0,9.195678 0,13.792808c-0.683049,0 -1.3661,0 -2.049151,0c0.005668,-3.266456 -0.012754,-6.534331 0.00992,-9.800787c-0.520082,3.263621 -0.996233,6.534331 -1.500727,9.800787c-0.691554,-0.001417 -1.383108,0.001417 -2.073245,-0.002834c-0.508745,-3.211191 -1.116689,-6.408207 -1.561663,-9.629315c-0.117621,3.208354 -0.01984,6.422376 -0.052434,9.632149c-0.630618,0 -1.259816,0 -1.889016,0c0,-4.59713 0,-9.195678 0,-13.792808z" id="svg_23"></path><path stroke="null" fill="#060808" d="m57.269977,89.457407c0.735485,-4.598547 1.468133,-9.195678 2.205035,-13.792808c1.061421,0 2.121425,-0.001417 3.182848,0c0.734065,4.59713 1.46955,9.194261 2.203618,13.792808c-0.732651,0 -1.466718,0 -2.199366,0c-0.121873,-0.834684 -0.250831,-1.669365 -0.372704,-2.504048c-0.878612,-0.001417 -1.757226,0.002834 -2.637255,-0.002834c-0.138878,0.834684 -0.250831,1.672199 -0.381204,2.5083c-0.667463,-0.002834 -1.334926,-0.001417 -2.000972,-0.001417m3.688759,-11.300097c-0.347196,2.307068 -0.691554,4.615553 -1.034498,6.922621c0.68872,0 1.378857,0 2.067577,0c-0.344361,-2.307068 -0.691554,-4.614136 -1.033081,-6.922621l0.000003,0z" id="svg_24"></path><path stroke="null" fill="#060808" d="m109.561619,89.457407c0.735485,-4.598547 1.466716,-9.195678 2.206452,-13.792808c1.060004,0 2.120007,-0.001417 3.181428,0c0.734068,4.59713 1.469553,9.195678 2.203618,13.792808c-0.734065,0 -1.466716,0 -2.199366,0c-0.123287,-0.834684 -0.249411,-1.669365 -0.372701,-2.504048c-0.880029,0 -1.758643,0.002834 -2.637255,-0.002834c-0.138878,0.834684 -0.250831,1.672199 -0.381204,2.506882c-0.667463,-0.001417 -1.334926,0 -2.000972,0m2.654261,-4.377476c0.68872,0 1.37744,0 2.067577,0c-0.342944,-2.307068 -0.691554,-4.614136 -1.031661,-6.921204c-0.35003,2.305651 -0.691554,4.614136 -1.035915,6.921204z" id="svg_25"></path><path stroke="null" fill="#060808" d="m136.32672,75.6646c2.04632,0 4.094054,-0.001417 6.140371,0c-0.024091,0.666046 0.048182,1.342012 -0.034011,2.003806c-1.339175,3.277793 -2.716614,6.539997 -4.06996,9.812121c1.367517,0 2.736454,0 4.103971,0c0,0.660377 0,1.320755 0,1.981132c-2.115756,0 -4.231512,0 -6.347268,0c0.041097,-0.697223 -0.089279,-1.417119 0.070856,-2.098753c1.343426,-3.242365 2.695357,-6.480478 4.0402,-9.721425c-1.300912,-0.001417 -2.601827,-0.001417 -3.902742,0c-0.002834,-0.660377 -0.001417,-1.319338 -0.001417,-1.976881z" id="svg_26"></path><path stroke="null" fill="#060808" d="m162.023317,89.45599c0.001417,-4.59713 -0.001417,-9.194261 0.001417,-13.792808c0.721311,0.001417 1.442625,0.001417 2.165355,0c0.002834,4.59713 -0.001417,9.195678 0.001417,13.792808c-0.724148,0.001417 -1.446879,0.001417 -2.16819,0z" id="svg_27"></path><path stroke="null" fill="#060808" d="m187.106299,89.45599c0.002834,-4.59713 -0.001417,-9.195678 0.001417,-13.792808c0.906954,0 1.813911,0.002834 2.722283,-0.001417c0.753908,2.729371 1.478055,5.468659 2.234795,8.198027c0.004251,-2.732203 0,-5.464405 0.002834,-8.19661c0.641955,0.001417 1.285327,0.001417 1.930115,0.001417c0,4.59713 -0.001417,9.194261 0,13.792808c-0.746822,0 -1.492227,0 -2.236212,0c-0.887117,-3.284878 -1.78982,-6.565505 -2.672683,-9.850386c-0.065188,3.282047 -0.008503,6.566925 -0.028342,9.850386c-0.651875,0 -1.303749,0 -1.954207,-0.001417z" id="svg_28"></path><path stroke="null" fill="#060808" d="m213.843057,75.6646c1.966961,-0.001417 3.935336,0 5.902297,-0.001417c0.001417,0.65896 0,1.31792 0.001417,1.976881c-1.247064,0 -2.492711,0 -3.736938,0c0,1.279658 0,2.56073 0,3.840388c0.990565,0 1.982546,-0.001417 2.974528,0c-0.001417,0.65896 -0.002834,1.31792 0,1.976881c-0.991982,0.002834 -1.982546,0 -2.973111,0c-0.002834,1.342009 -0.001417,2.682603 -0.001417,4.023195c1.245644,0.001417 2.491291,-0.001417 3.736938,0.001417c-0.001417,0.660377 -0.001417,1.319338 0,1.979715c-1.968378,0 -3.936753,0 -5.903714,0c0,-4.598547 0,-9.198512 0,-13.797059z" id="svg_29"></path></g></g></g></svg> 